<?xml version="1.0" encoding="iso-8859-1"?>
<!-- Generator: Adobe Illustrator 16.0.0, SVG Export Plug-In . SVG Version: 6.00 Build 0)  -->
<!DOCTYPE svg PUBLIC "-//W3C//DTD SVG 1.1//EN" "http://www.w3.org/Graphics/SVG/1.1/DTD/svg11.dtd">
<svg version="1.1" id="Capa_1" xmlns="http://www.w3.org/2000/svg" xmlns:xlink="http://www.w3.org/1999/xlink" x="0px" y="0px"
	 width="668.91px" height="668.91px" viewBox="0 0 668.91 668.91" style="enable-background:new 0 0 668.91 668.91;"
	 xml:space="preserve">
<g>
	<g>
		<path d="M194.785,24.856C172.834-3.26,132.162-8.199,104.207,13.655L53.204,53.488c-28.083,21.918-32.926,62.591-11.04,90.61
			l19.852,25.405L214.637,50.26l-9.942-12.686L194.785,24.856z"/>
		<path d="M43.94,346.108c0,97.519,48.033,183.804,121.761,236.518l-64.076,63.785l22.596,22.499l69.112-68.821
			c41.771,23.274,89.9,36.541,141.129,36.541c50.195,0,97.389-12.718,138.578-35.12l67.691,67.4l22.597-22.499l-62.43-62.172
			c75.019-52.52,124.085-139.611,124.085-238.131c0-160.465-130.058-290.522-290.521-290.522
			C174.029,55.586,43.94,185.676,43.94,346.108z M366.741,345.851v32.409h-0.161v0.129h-32.118v-0.129H205.341v-32.409h129.121
			V152.427h32.118v193.423H366.741z"/>
		<path d="M616.848,156.785l9.91-12.718c21.95-28.116,16.914-68.757-11.04-90.61l-50.971-39.833
			c-28.084-21.918-68.725-16.818-90.578,11.201l-19.853,25.404l152.621,119.275L616.848,156.785z"/>
	</g>
</g>
<g>
</g>
<g>
</g>
<g>
</g>
<g>
</g>
<g>
</g>
<g>
</g>
<g>
</g>
<g>
</g>
<g>
</g>
<g>
</g>
<g>
</g>
<g>
</g>
<g>
</g>
<g>
</g>
<g>
</g>
</svg>
