<svg width="419" height="169" viewBox="0 0 419 169" fill="none" xmlns="http://www.w3.org/2000/svg">
<g filter="url(#filter0_b)">
<path fill-rule="evenodd" clip-rule="evenodd" d="M39.4039 2C18.7464 2 2.00024 18.7462 2.00024 39.4037V116.761C2.00024 137.419 18.7464 154.165 39.4039 154.165H72.7694L88.1784 166.492C89.7307 167.734 91.9365 167.734 93.4888 166.492L108.898 154.165H379.437C400.094 154.165 416.84 137.419 416.84 116.761V39.4036C416.84 18.7462 400.094 2 379.437 2H39.4039Z" fill="black" fill-opacity="0.1"/>
<path d="M72.7694 154.165L73.5659 153.169L73.2167 152.89H72.7694V154.165ZM88.1784 166.492L88.975 165.496L88.1784 166.492ZM93.4888 166.492L92.6923 165.496L93.4888 166.492ZM108.898 154.165V152.89H108.451L108.101 153.169L108.898 154.165ZM3.27537 39.4037C3.27537 19.4504 19.4506 3.27512 39.4039 3.27512V0.724876C18.0422 0.724876 0.725121 18.042 0.725121 39.4037H3.27537ZM3.27537 116.761V39.4037H0.725121V116.761H3.27537ZM39.4039 152.89C19.4507 152.89 3.27537 136.714 3.27537 116.761H0.725121C0.725121 138.123 18.0422 155.44 39.4039 155.44V152.89ZM72.7694 152.89H39.4039V155.44H72.7694V152.89ZM88.975 165.496L73.5659 153.169L71.9728 155.16L87.3818 167.488L88.975 165.496ZM92.6923 165.496C91.6056 166.366 90.0616 166.366 88.975 165.496L87.3818 167.488C89.3999 169.102 92.2674 169.102 94.2854 167.488L92.6923 165.496ZM108.101 153.169L92.6923 165.496L94.2854 167.488L109.694 155.16L108.101 153.169ZM379.437 152.89H108.898V155.44H379.437V152.89ZM415.565 116.761C415.565 136.714 399.39 152.89 379.437 152.89V155.44C400.798 155.44 418.116 138.123 418.116 116.761H415.565ZM415.565 39.4036V116.761H418.116V39.4036H415.565ZM379.437 3.27512C399.39 3.27512 415.565 19.4504 415.565 39.4036H418.116C418.116 18.0419 400.798 0.724876 379.437 0.724876V3.27512ZM39.4039 3.27512H379.437V0.724876H39.4039V3.27512Z" fill="url(#paint0_linear)"/>
<path d="M72.7694 154.165L73.5659 153.169L73.2167 152.89H72.7694V154.165ZM88.1784 166.492L88.975 165.496L88.1784 166.492ZM93.4888 166.492L92.6923 165.496L93.4888 166.492ZM108.898 154.165V152.89H108.451L108.101 153.169L108.898 154.165ZM3.27537 39.4037C3.27537 19.4504 19.4506 3.27512 39.4039 3.27512V0.724876C18.0422 0.724876 0.725121 18.042 0.725121 39.4037H3.27537ZM3.27537 116.761V39.4037H0.725121V116.761H3.27537ZM39.4039 152.89C19.4507 152.89 3.27537 136.714 3.27537 116.761H0.725121C0.725121 138.123 18.0422 155.44 39.4039 155.44V152.89ZM72.7694 152.89H39.4039V155.44H72.7694V152.89ZM88.975 165.496L73.5659 153.169L71.9728 155.16L87.3818 167.488L88.975 165.496ZM92.6923 165.496C91.6056 166.366 90.0616 166.366 88.975 165.496L87.3818 167.488C89.3999 169.102 92.2674 169.102 94.2854 167.488L92.6923 165.496ZM108.101 153.169L92.6923 165.496L94.2854 167.488L109.694 155.16L108.101 153.169ZM379.437 152.89H108.898V155.44H379.437V152.89ZM415.565 116.761C415.565 136.714 399.39 152.89 379.437 152.89V155.44C400.798 155.44 418.116 138.123 418.116 116.761H415.565ZM415.565 39.4036V116.761H418.116V39.4036H415.565ZM379.437 3.27512C399.39 3.27512 415.565 19.4504 415.565 39.4036H418.116C418.116 18.0419 400.798 0.724876 379.437 0.724876V3.27512ZM39.4039 3.27512H379.437V0.724876H39.4039V3.27512Z" fill="url(#paint1_linear)"/>
</g>
<defs>
<filter id="filter0_b" x="-19.2749" y="-19.2751" width="457.39" height="207.974" filterUnits="userSpaceOnUse" color-interpolation-filters="sRGB">
<feFlood flood-opacity="0" result="BackgroundImageFix"/>
<feGaussianBlur in="BackgroundImage" stdDeviation="10"/>
<feComposite in2="SourceAlpha" operator="in" result="effect1_backgroundBlur"/>
<feBlend mode="normal" in="SourceGraphic" in2="effect1_backgroundBlur" result="shape"/>
</filter>
<linearGradient id="paint0_linear" x1="209.42" y1="2" x2="209.42" y2="167.423" gradientUnits="userSpaceOnUse">
<stop stop-color="#FFBA03"/>
<stop offset="1" stop-color="#FFE400"/>
</linearGradient>
<linearGradient id="paint1_linear" x1="125.5" y1="18.859" x2="391.579" y2="192.703" gradientUnits="userSpaceOnUse">
<stop stop-color="#EF103D"/>
<stop offset="1" stop-color="#0354FF"/>
</linearGradient>
</defs>
</svg>
